# xmcd
#
# Track frame offsets: 
#        150
#        12516
#        25814
#        40592
#        55803
#        70589
#        82919
#        95475
#        111734
#        127452
#        142274
#        155528
#        168917
#        182253
#        195711
#        207314
#        221276
#        236657
#        250138
#        263957
#        278257
#        291235
#        303730
#        317990
#        333204
#        347113
#
# Disc length: 4791 seconds
#
# Revision: 6
# Processed by: cddbd v1.5.2PL0 Copyright (c) Steve Scherf et al.
# Submitted via: ExactAudioCopyFreeDBPlugin 1.0
#
DISCID=8512b51a
DTITLE=Carter Family, The - Carter Family 1927-1934 disc B
DYEAR=1929
DGENRE=Folklore
TTITLE0=Don't Forget This Song
TTITLE1=Foggy Mountain Top, The
TTITLE2=Bring Back My Blue-Eyed Boy To Me
TTITLE3=Diamonds In The Rough
TTITLE4=Engine One-Forty-Three
TTITLE5=Homestead On The Farm, The
TTITLE6=Cyclone Of Rye Cove, The
TTITLE7=Motherless Children
TTITLE8=When The Roses Bloom In Dixieland
TTITLE9=No Telephone In Heaven
TTITLE10=Western Hobo
TTITLE11=Carter's Blues
TTITLE12=Wabash Cannonball
TTITLE13=Distant Land To Roam, A
TTITLE14=Jimmie Brown The Newsboy
TTITLE15=Kitty Waltz
TTITLE16=Fond Affection
TTITLE17=Cannonball, The
TTITLE18=Lover's Farewell, The
TTITLE19=There's Someone Awaiting For Me
TTITLE20=Little Log Hut In The Lane, The
TTITLE21=When The Springtime Comes Again
TTITLE22=When The World's On Fire
TTITLE23=I Have An Aged Mother
TTITLE24=Dying Soldier
TTITLE25=Worried Man Blues
EXTD=Bear Family CD 15865 LK YEAR: 1929
EXTT0=15-FEB-1929, Camden
EXTT1=15-FEB-1929, Camden
EXTT2=15-FEB-1929, Camden
EXTT3=15-FEB-1929, Camden
EXTT4=15-FEB-1929, Camden
EXTT5=22-NOV-1929, Atlanta
EXTT6=22-NOV-1929, Atlanta
EXTT7=22-NOV-1929, Atlanta
EXTT8=24-NOV-1929, Atlanta
EXTT9=24-NOV-1929, Atlanta
EXTT10=24-NOV-1929, Atlanta
EXTT11=24-NOV-1929, Atlanta
EXTT12=24-NOV-1929, Atlanta
EXTT13=25-NOV-1929, Atlanta
EXTT14=25-NOV-1929, Atlanta
EXTT15=25-NOV-1929, Atlanta
EXTT16=25-NOV-1929, Atlanta
EXTT17=24-MAY-1930, Memphis
EXTT18=24-MAY-1930, Memphis
EXTT19=24-MAY-1930, Memphis
EXTT20=24-MAY-1930, Memphis
EXTT21=24-MAY-1930, Memphis
EXTT22=24-MAY-1930, Memphis
EXTT23=24-MAY-1930, Memphis
EXTT24=24-MAY-1930, Memphis
EXTT25=24-MAY-1930, Memphis
PLAYORDER=
